<svg width="96" height="96" viewBox="0 0 480 480" fill="none" xmlns="http://www.w3.org/2000/svg">
<path d="M140.6 34C138.733 62 137.8 80.5333 137.8 89.6C137.8 116.8 138.467 134.533 139.8 142.8L141.4 153.6L192.6 20.4C215 33.4667 240.333 42.8 268.6 48.4C267.533 72.1333 264.2 98.8 258.6 128.4C253 158 247.667 181.6 242.6 199.2L235 225.6C220.867 234.933 198.067 241.867 166.6 246.4C172.467 225.867 177.133 206.133 180.6 187.2C184.333 168.267 186.6 154.533 187.4 146L188.2 132.8C185.533 138.4 181.933 145.6 177.4 154.4C173.133 163.2 165 176.933 153 195.6C141.267 214 130.733 227.2 121.4 235.2C116.333 225.067 111.933 211.467 108.2 194.4C104.467 177.333 101.933 162.8 100.6 150.8L98.6 132.8C97 136 94.8667 140.667 92.2 146.8C89.8 152.933 86.4667 167.467 82.2 190.4C78.2 213.333 76.2 238.267 76.2 265.2C73 263.6 68.7333 261.333 63.4 258.4C58.3333 255.467 50.7333 249.6 40.6 240.8C30.4667 232 23.6667 223.333 20.2 214.8C22.6 186.8 26.6 160 32.2 134.4C37.8 108.533 42.8667 89.7333 47.4 78L53.8 60C64.4667 54.1333 78.0667 48.6667 94.6 43.6C111.4 38.2667 126.733 35.0667 140.6 34Z" fill="#2BD8E3"/>
<path d="M331.4 227.6C329.533 255.6 328.6 274.133 328.6 283.2C328.6 310.4 329.267 328.133 330.6 336.4L332.2 347.2L383.4 214C405.8 227.067 431.133 236.4 459.4 242C458.333 265.733 455 292.4 449.4 322C443.8 351.6 438.467 375.2 433.4 392.8L425.8 419.2C411.667 428.533 388.867 435.467 357.4 440C363.267 419.467 367.933 399.733 371.4 380.8C375.133 361.867 377.4 348.133 378.2 339.6L379 326.4C376.333 332 372.733 339.2 368.2 348C363.933 356.8 355.8 370.533 343.8 389.2C332.067 407.6 321.533 420.8 312.2 428.8C307.133 418.667 302.733 405.067 299 388C295.267 370.933 292.733 356.4 291.4 344.4L289.4 326.4C287.8 329.6 285.667 334.267 283 340.4C280.6 346.533 277.267 361.067 273 384C269 406.933 267 431.867 267 458.8C263.8 457.2 259.533 454.933 254.2 452C249.133 449.067 241.533 443.2 231.4 434.4C221.267 425.6 214.467 416.933 211 408.4C213.4 380.4 217.4 353.6 223 328C228.6 302.133 233.667 283.333 238.2 271.6L244.6 253.6C255.267 247.733 268.867 242.267 285.4 237.2C302.2 231.867 317.533 228.667 331.4 227.6Z" fill="#D6860F"/>
</svg>
